<?xml version="1.0" standalone="no"?>
<!DOCTYPE svg PUBLIC "-//W3C//DTD SVG 20010904//EN"
 "http://www.w3.org/TR/2001/REC-SVG-20010904/DTD/svg10.dtd">
<svg version="1.0" xmlns="http://www.w3.org/2000/svg"
 width="150.000000pt" height="171.000000pt" viewBox="0 0 150.000000 171.000000"
 preserveAspectRatio="xMidYMid meet">

<g transform="translate(0.000000,171.000000) scale(0.100000,-0.100000)"
fill="#000000" stroke="none">
<path d="M825 1459 c-203 -26 -371 -48 -372 -48 -2 -1 -3 -196 -3 -435 l0
-433 -47 23 c-86 44 -207 28 -274 -36 -44 -42 -62 -98 -49 -155 11 -52 81
-117 145 -135 98 -28 217 15 262 95 23 40 23 42 23 503 0 254 3 462 6 462 3 0
142 18 309 40 167 22 311 40 319 40 14 0 16 -42 16 -375 0 -206 -2 -375 -4
-375 -3 0 -21 10 -41 21 -22 13 -60 23 -98 26 -182 15 -298 -152 -196 -281 38
-48 95 -71 179 -71 115 0 186 46 210 136 11 41 2 1050 -9 1048 -3 -1 -172 -23
-376 -50z"/>
</g>
</svg>
