<?xml version="1.0" standalone="no"?>
<!DOCTYPE svg PUBLIC "-//W3C//DTD SVG 20010904//EN"
 "http://www.w3.org/TR/2001/REC-SVG-20010904/DTD/svg10.dtd">
<svg version="1.0" xmlns="http://www.w3.org/2000/svg"
 width="128.000000pt" height="167.000000pt" viewBox="0 0 128.000000 167.000000"
 preserveAspectRatio="xMidYMid meet">

<g transform="translate(0.000000,167.000000) scale(0.100000,-0.100000)"
fill="#000000" stroke="none">
<path d="M658 975 c3 -283 2 -515 -2 -515 -5 0 -21 9 -36 20 -41 29 -143 53
-193 45 -214 -35 -298 -236 -152 -364 47 -41 86 -58 152 -66 110 -15 222 35
270 120 22 39 23 46 23 404 l0 364 53 -55 c29 -30 86 -80 125 -112 40 -31 84
-75 99 -97 36 -54 41 -122 15 -183 -24 -52 -17 -58 21 -18 68 71 74 170 14
255 -17 26 -18 30 -3 45 23 27 46 87 46 124 0 74 -48 141 -165 233 -100 79
-165 170 -196 273 -11 38 -15 42 -44 42 l-32 0 5 -515z m239 131 c109 -91 138
-139 131 -217 -3 -27 -8 -52 -11 -56 -10 -10 -86 46 -153 112 -77 76 -136 189
-141 273 l-4 57 43 -46 c24 -26 84 -81 135 -123z"/>
</g>
</svg>
