<?xml version="1.0" standalone="no"?>
<!DOCTYPE svg PUBLIC "-//W3C//DTD SVG 20010904//EN"
 "http://www.w3.org/TR/2001/REC-SVG-20010904/DTD/svg10.dtd">
<svg version="1.0" xmlns="http://www.w3.org/2000/svg"
 width="167.000000pt" height="259.000000pt" viewBox="0 0 167.000000 259.000000"
 preserveAspectRatio="xMidYMid meet">

<g transform="translate(0.000000,259.000000) scale(0.100000,-0.100000)"
fill="#000000" stroke="none">
<path d="M917 2529 c-21 -12 -45 -58 -65 -124 -13 -40 -16 -110 -16 -351 l-1
-302 -97 -100 c-186 -191 -260 -345 -260 -537 0 -237 165 -394 422 -398 l85
-2 12 -90 c27 -210 11 -309 -59 -369 -110 -94 -258 -31 -234 99 l7 35 54 -6
c51 -6 56 -5 84 24 66 65 23 172 -69 172 -67 0 -118 -36 -155 -109 -22 -44
-22 -138 0 -185 61 -128 237 -155 341 -51 71 72 85 187 50 440 l-7 50 49 18
c72 25 141 75 184 132 162 212 15 534 -252 553 l-68 5 -7 89 -7 89 54 57 c58
61 121 150 157 219 78 154 63 423 -31 564 -52 77 -120 108 -171 78z m98 -134
c29 -58 30 -65 30 -195 -1 -117 -4 -143 -23 -192 -28 -70 -108 -182 -124 -172
-16 10 -3 431 16 510 33 133 54 143 101 49z m-146 -942 c1 -45 -2 -53 -20 -58
-38 -12 -111 -88 -135 -140 -43 -91 -24 -233 35 -264 18 -10 18 -8 4 32 -25
73 5 158 78 221 50 42 57 44 63 14 22 -100 76 -480 71 -489 -5 -8 -33 -10 -84
-7 -220 13 -350 172 -307 376 25 119 83 217 205 345 l76 80 6 -29 c4 -16 7
-52 8 -81z m182 -178 c78 -41 149 -152 149 -236 0 -98 -57 -193 -144 -239 -25
-14 -47 -22 -50 -19 -8 7 -66 449 -66 498 0 22 3 23 41 17 23 -4 54 -13 70
-21z"/>
</g>
</svg>
