<?xml version="1.0" standalone="no"?>
<!DOCTYPE svg PUBLIC "-//W3C//DTD SVG 20010904//EN"
 "http://www.w3.org/TR/2001/REC-SVG-20010904/DTD/svg10.dtd">
<svg version="1.0" xmlns="http://www.w3.org/2000/svg"
 width="158.000000pt" height="156.000000pt" viewBox="0 0 158.000000 156.000000"
 preserveAspectRatio="xMidYMid meet">

<g transform="translate(0.000000,156.000000) scale(0.100000,-0.100000)"
fill="#000000" stroke="none">
<path d="M925 1380 c-165 -22 -322 -41 -350 -45 l-50 -6 3 -434 c2 -239 1
-435 -2 -435 -3 0 -24 10 -47 22 -159 82 -354 -30 -325 -187 9 -45 59 -103
111 -126 91 -42 234 -10 286 62 l24 34 5 420 5 419 305 43 c168 23 312 42 321
43 14 0 17 -36 23 -316 4 -174 5 -318 2 -321 -3 -3 -27 5 -53 18 -60 30 -160
32 -213 5 -77 -40 -110 -89 -110 -163 0 -161 229 -243 365 -130 66 54 65 40
65 617 l0 520 -32 -1 c-18 -1 -168 -18 -333 -39z m305 -103 c0 -24 -4 -24
-268 -61 -147 -20 -293 -40 -325 -43 -58 -6 -59 -5 -55 18 3 26 -36 19 438 83
226 31 210 30 210 3z"/>
</g>
</svg>
